<?xml version="1.0" encoding="utf-8"?>
<!-- Generator: Adobe Illustrator 17.0.0, SVG Export Plug-In . SVG Version: 6.00 Build 0)  -->
<!DOCTYPE svg PUBLIC "-//W3C//DTD SVG 1.1//EN" "http://www.w3.org/Graphics/SVG/1.1/DTD/svg11.dtd">
<svg version="1.1" id="Layer_1" xmlns="http://www.w3.org/2000/svg" xmlns:xlink="http://www.w3.org/1999/xlink" x="0px" y="0px"
	 width="182.729px" height="72.708px" viewBox="0 0 182.729 72.708" enable-background="new 0 0 182.729 72.708"
	 xml:space="preserve">
<g>
	<g>
		<g>
			<rect x="73.375" y="32.767" fill-rule="evenodd" clip-rule="evenodd" fill="#FFFFFF" width="1.615" height="22.385"/>
			<g>
				<path fill="#FFFFFF" d="M25.475,29.687c0,0-8.059-1.032-11.412-1.032c-3.287,0-5.027,1.161-5.027,3.546
					c0,1.934,1.289,2.515,6.383,3.417c7.994,1.483,11.024,3.546,11.024,9.929c0,7.543-5.158,10.314-12.508,10.314
					c-4.576,0-11.926-1.482-11.926-1.482v-5.996c0,0,7.93,1.032,11.217,1.032c4.256,0,5.867-1.097,5.867-3.675
					c0-1.998-0.967-2.579-5.867-3.546c-7.221-1.483-11.539-3.159-11.539-9.799c0-7.35,5.93-10.187,11.861-10.187
					c4.707,0,11.928,1.483,11.928,1.483V29.687z"/>
				<path fill="#FFFFFF" d="M124,60.891c0-3.159,1.613-5.544,4.772-7.93c-1.354-0.902-2.244-2.645-2.193-4.642
					c0.082-3.049,2.451-5.285,2.451-5.285c-2.385-1.549-4.643-4.256-4.643-9.478c0-7.801,5.932-11.282,12.701-11.282
					c2.449,0,6.125,0.838,6.125,0.838h9.863v5.673h-4.707c0.773,1.032,1.484,2.579,1.484,4.771c0,8.188-4.9,11.218-12.895,11.218
					c-0.645,0-1.869-0.129-2.516-0.258c0,0-1.238,1.252-1.051,2.937c0.213,1.921,0.729,2.35,6.66,2.35
					c9.414,0,13.281,2.257,13.281,9.542c0,7.994-6.77,11.281-14.699,11.281C129.932,70.625,124,68.176,124,60.891z M133.607,55.669
					c-1.484,1.354-2.322,2.579-2.322,4.448c0,2.771,2.965,4.06,7.414,4.06c4.578,0,7.221-1.482,7.221-4.447
					c0-3.095-2.127-3.675-6.447-3.675C137.475,56.056,133.607,55.669,133.607,55.669z M142.568,33.555
					c0-3.481-1.807-5.222-5.545-5.222c-3.547,0-5.287,1.87-5.287,5.222c0,3.353,1.74,5.287,5.223,5.287
					C140.439,38.842,142.568,37.23,142.568,33.555z"/>
				<path fill="#FFFFFF" d="M180.242,48.834v5.48c0,0-6.059,1.547-12.248,1.547c-9.992,0-13.732-5.737-13.732-16.439
					c0-10.831,4.705-17.213,13.668-17.213c9.025,0,14.029,6.352,12.893,19.921l0,0h-19.146c0.064,4.255,1.869,7.285,6.898,7.285
					C173.15,49.415,180.242,48.834,180.242,48.834z M174.055,36.521c0-5.352-1.678-8.123-6.125-8.123
					c-4.449,0-6.254,2.965-6.318,8.123H174.055z"/>
				<path fill="#FFFFFF" d="M51.523,47.004c-1.08-0.453-2.045-1.018-2.851-1.639c-1.006,2.646-2.943,4.05-6.311,4.05
					c-2.514,0-4.836-0.452-5.094-0.517V30.654c0,0,3.482-1.805,6.318-1.805c4.123,0,5.992,3.861,5.996,9.848
					c1.465-0.092,3.238,0.219,5.018,0.964c0.889,0.372,1.697,0.819,2.406,1.312c0.035-0.722,0.055-1.475,0.055-2.26
					c0-11.283-4.256-16.504-12.121-16.504c-3.674,0-7.672,2.451-7.672,2.451v-1.677h-7.35V68.95h7.35V55.347
					c0.322,0.063,2.967,0.515,5.609,0.515c6.59,0,10.938-2.115,12.93-7.881C54.502,47.947,53.016,47.628,51.523,47.004z"/>
				<g>
					<path fill="#FFFFFF" d="M109.861,22.208c-3.545,0-8.254,2.386-8.254,2.386v-1.612H94.26v17.346
						c0.324-0.196,0.664-0.385,1.02-0.56c2.312-1.149,4.664-1.52,6.328-1.141v-8.101c0,0,3.998-1.612,6.836-1.612
						c4.254,0,5.027,3.997,5.027,9.477v16.762h7.35V38.326C120.82,28.14,118.307,22.208,109.861,22.208z"/>
					<path fill="#FFFFFF" d="M98.82,45.578c-1.58,0.785-3.178,2.525-4.561,2.594v6.98h7.348V43.845
						C100.834,44.533,99.891,45.047,98.82,45.578z"/>
				</g>
			</g>
			<g>
				<g>
					<g>
						<path fill-rule="evenodd" clip-rule="evenodd" fill="#FFFFFF" d="M73.256,1.889C79,1.613,83.396,3.851,86.301,6.599
							c2.959,2.801,5.336,6.685,5.623,12.133c0.305,5.797-2.004,10.044-4.713,12.979c-2.85,3.095-6.645,5.313-12.096,5.662
							c-5.648,0.354-10.154-2.02-13.014-4.685c-2.982-2.775-5.369-6.679-5.658-12.1c-0.31-5.878,1.945-10.01,4.684-13.02
							c2.381-2.611,5.68-4.726,10.062-5.468C71.891,1.979,72.594,1.916,73.256,1.889z M78.273,6.688
							c-0.676-0.067-7.01-0.16-8.359-0.025c-1.027,0.096-1.949,0.615-2.494,1.365c-0.287,0.387-0.48,0.874-0.729,1.305
							c-0.756,1.316-1.545,2.651-2.248,3.958c1.904,1.047,3.742,2.173,5.654,3.223c0.926-1.636,1.887-3.276,2.828-4.962
							c0.143-0.264,0.713-1.499,1.121-1.488c0.309,0.012,0.576,0.555,0.727,0.818c0.619,1.064,1.145,1.993,1.707,2.985
							c-0.646,0.387-1.307,0.761-1.949,1.157c2.172,0.011,4.266-0.058,6.447-0.03c1.086-1.847,2.15-3.715,3.193-5.596
							c-0.715,0.377-1.361,0.827-2.098,1.183C81.008,9.13,80.539,6.923,78.273,6.688z M78.818,17.968
							c0.98,1.78,2.209,3.812,3.256,5.658c0.113,0.206,0.438,0.636,0.393,0.887c-0.086,0.539-1.52,0.402-2.143,0.402
							c-0.875,0-1.596-0.019-2.414-0.042c-0.057-0.725,0.006-1.568-0.059-2.28c-1.035,1.896-2.139,3.724-3.168,5.628
							c0.891,1.596,1.971,3.291,2.861,4.86c0.111,0.198,0.275,0.649,0.395,0.61c0.033-0.808-0.059-1.643,0-2.372
							c0.969-0.039,1.916,0.034,2.795-0.032c1.061-0.078,1.977-0.425,2.5-1.276c0.182-0.296,2.557-4.396,3.553-6.109
							c0.406-0.706,0.877-1.405,0.945-2.313c0.105-1.429-0.508-2.104-0.977-2.92c-0.777-1.356-1.496-2.546-2.279-3.922
							c-0.014,0-0.039,0-0.06,0C82.531,15.804,80.691,16.9,78.818,17.968z M59.908,16.174c0.711,0.403,1.438,0.794,2.127,1.217
							c-0.428,1.081-1.598,2.246-1.701,3.679c-0.086,1.265,0.475,1.992,0.912,2.773c0.693,1.224,1.412,2.484,2.1,3.672
							c0.877,1.527,1.719,3.775,3.894,3.831c2.176,0.056,3.809,0.039,5.953-0.027c-0.002-2.376,0.01-4.521-0.029-6.505
							c-1.932,0-3.957,0-5.924,0c-0.623,0-1.621,0.142-1.674-0.336c-0.039-0.296,0.303-0.768,0.453-1.034
							c0.561-1.009,1.123-1.945,1.67-2.858c0.639,0.392,1.312,0.736,1.947,1.123c-1.074-1.893-2.154-3.784-3.311-5.593
							C64.195,16.145,62.018,16.124,59.908,16.174z"/>
					</g>
				</g>
			</g>
			<path fill="#FFFFFF" d="M72.891,52.115c-2.832,2.359-10.486-1.162-15.037-4.727c-10.236-8.012-11.986-6.072-11.986-6.072
				s1.285-0.992,10.486,6.215c8.771,6.865,12.689,7.713,15.354,7.027c-2.281,1.234-8.895,3.615-16.93-3.391
				c-9.758-8.512-14.871-9.455-14.871-9.455S50.848,24.916,72.891,52.115z"/>
			<path fill="#FFFFFF" d="M108.459,41.713c0,0-5.111,0.943-14.869,9.455c-8.035,7.006-14.65,4.625-16.93,3.391
				c2.662,0.685,6.58-0.162,15.353-7.027c9.201-7.207,10.486-6.215,10.486-6.215s-1.752-1.939-11.986,6.072
				c-4.551,3.564-12.205,7.086-15.037,4.727C97.518,24.916,108.459,41.713,108.459,41.713z"/>
		</g>
	</g>
</g>
</svg>
